<svg width="76" height="72" viewBox="0 0 76 72" fill="none" xmlns="http://www.w3.org/2000/svg">
<g clip-path="url(#clip0)">
<path d="M38 0.139648C26.6891 0.139648 16.5805 4.83652 9.63359 12.2615L0 3.13496V27.1396H25.3383L16.4023 18.674C21.6125 12.8662 29.3164 9.13965 38 9.13965C53.7492 9.13965 66.5 21.2193 66.5 36.1396C66.5 51.06 53.7492 63.1396 38 63.1396C30.1328 63.1396 23.0078 60.1162 17.8422 55.2365L11.1328 61.5928C18.0203 68.1037 27.5203 72.1396 38 72.1396C58.9891 72.1396 76 56.024 76 36.1396C76 16.2553 58.9891 0.139648 38 0.139648Z" fill="white"/>
<g clip-path="url(#clip1)">
<path fill-rule="evenodd" clip-rule="evenodd" d="M29.3125 26.8125C28.7489 26.8125 28.2084 27.0035 27.8099 27.3434C27.4114 27.6833 27.1875 28.1443 27.1875 28.625V30.4375C27.1875 30.9182 27.4114 31.3792 27.8099 31.7191C28.2084 32.059 28.7489 32.25 29.3125 32.25H30.375V48.5625C30.375 49.5239 30.8228 50.4459 31.6198 51.1258C32.4168 51.8056 33.4978 52.1875 34.625 52.1875H47.375C48.5022 52.1875 49.5832 51.8056 50.3802 51.1258C51.1772 50.4459 51.625 49.5239 51.625 48.5625V32.25H52.6875C53.2511 32.25 53.7916 32.059 54.1901 31.7191C54.5886 31.3792 54.8125 30.9182 54.8125 30.4375V28.625C54.8125 28.1443 54.5886 27.6833 54.1901 27.3434C53.7916 27.0035 53.2511 26.8125 52.6875 26.8125H45.25C45.25 26.3318 45.0261 25.8708 44.6276 25.5309C44.2291 25.191 43.6886 25 43.125 25H38.875C38.3114 25 37.7709 25.191 37.3724 25.5309C36.9739 25.8708 36.75 26.3318 36.75 26.8125H29.3125ZM35.6875 34.0625C35.9693 34.0625 36.2395 34.158 36.4388 34.3279C36.6381 34.4979 36.75 34.7284 36.75 34.9688V47.6562C36.75 47.8966 36.6381 48.1271 36.4388 48.2971C36.2395 48.467 35.9693 48.5625 35.6875 48.5625C35.4057 48.5625 35.1355 48.467 34.9362 48.2971C34.7369 48.1271 34.625 47.8966 34.625 47.6562V34.9688C34.625 34.7284 34.7369 34.4979 34.9362 34.3279C35.1355 34.158 35.4057 34.0625 35.6875 34.0625V34.0625ZM41 34.0625C41.2818 34.0625 41.552 34.158 41.7513 34.3279C41.9506 34.4979 42.0625 34.7284 42.0625 34.9688V47.6562C42.0625 47.8966 41.9506 48.1271 41.7513 48.2971C41.552 48.467 41.2818 48.5625 41 48.5625C40.7182 48.5625 40.448 48.467 40.2487 48.2971C40.0494 48.1271 39.9375 47.8966 39.9375 47.6562V34.9688C39.9375 34.7284 40.0494 34.4979 40.2487 34.3279C40.448 34.158 40.7182 34.0625 41 34.0625V34.0625ZM47.375 34.9688C47.375 34.7284 47.2631 34.4979 47.0638 34.3279C46.8645 34.158 46.5943 34.0625 46.3125 34.0625C46.0307 34.0625 45.7605 34.158 45.5612 34.3279C45.3619 34.4979 45.25 34.7284 45.25 34.9688V47.6562C45.25 47.8966 45.3619 48.1271 45.5612 48.2971C45.7605 48.467 46.0307 48.5625 46.3125 48.5625C46.5943 48.5625 46.8645 48.467 47.0638 48.2971C47.2631 48.1271 47.375 47.8966 47.375 47.6562V34.9688Z" fill="#D14841"/>
</g>
</g>
<defs>
<clipPath id="clip0">
<rect width="76" height="72" fill="white"/>
</clipPath>
<clipPath id="clip1">
<rect width="34" height="29" fill="white" transform="translate(24 25)"/>
</clipPath>
</defs>
</svg>
